<?xml version="1.0" encoding="UTF-8"?><svg xmlns="http://www.w3.org/2000/svg" xmlns:xlink="http://www.w3.org/1999/xlink" height="258.3" preserveAspectRatio="xMidYMid meet" version="1.0" viewBox="98.2 83.4 228.8 258.3" width="228.8" zoomAndPan="magnify"><g id="change1_1"><circle cx="212.6" cy="212.6" fill="#35B6B4" r="114.414"/></g><g id="change2_2"><path d="M266.282,341.767H158.917c-12.354,0-22.404-10.051-22.404-22.405V148.061 c0-12.354,10.05-22.405,22.404-22.405h107.365c12.354,0,22.405,10.051,22.405,22.405v171.301 C288.688,331.716,278.637,341.767,266.282,341.767z M158.917,130.655c-9.597,0-17.404,7.808-17.404,17.405v171.301 c0,9.597,7.808,17.405,17.404,17.405h107.365c9.597,0,17.405-7.808,17.405-17.405V148.061c0-9.597-7.808-17.405-17.405-17.405 H158.917z" fill="#201847"/></g><g id="change2_3"><path d="M285.188,294.68H140.012c-1.381,0-2.5-1.119-2.5-2.5v-116c0-1.381,1.119-2.5,2.5-2.5h145.177 c1.381,0,2.5,1.119,2.5,2.5v116C287.688,293.561,286.569,294.68,285.188,294.68z M142.512,289.68h140.177v-111H142.512V289.68z" fill="#201847"/></g><g id="change2_4"><path d="M253.22,129.601h-80.071c-1.381,0-2.5-1.119-2.5-2.5v-19.417c0-1.381,1.119-2.5,2.5-2.5h80.071 c1.381,0,2.5,1.119,2.5,2.5v19.417C255.72,128.481,254.601,129.601,253.22,129.601z M175.648,124.601h75.071v-14.417h-75.071 V124.601z" fill="#201847"/></g><g id="change2_5"><path d="M263.173,110.148h-99.977c-1.381,0-2.5-1.119-2.5-2.5v-9.953c0-8.664,6.107-14.262,15.559-14.262h73.859 c9.597,0,15.559,5.292,15.559,13.81v10.405C265.673,109.029,264.554,110.148,263.173,110.148z M165.696,105.148h94.977v-7.905 c0-7.281-5.742-8.81-10.559-8.81h-73.859c-3.175,0-10.559,0.902-10.559,9.262V105.148z" fill="#201847"/></g><g id="change2_6"><path d="M215.294,281.312c-5.675,0-11.761-1.566-18.201-4.72c-1.24-0.607-1.753-2.104-1.146-3.345 c0.608-1.24,2.105-1.752,3.345-1.146c12.825,6.281,23.814,5.425,32.661-2.542c15.352-13.826,20.048-43.544,20.338-54.744 c-4.689,4.799-12.231,10.061-29.537,19.546c-1.21,0.665-2.73,0.22-3.394-0.991s-0.22-2.73,0.991-3.394 c20.968-11.493,26.937-16.382,31.135-21.871c1.208-1.578,2.907-1.534,3.973-0.825c1.216,0.81,1.945,2.396,1.817,7.795 c-0.086,3.65-0.571,8.254-1.366,12.964c-1.228,7.273-4.305,21.247-11.123,33.121 C237.11,274.535,227.094,281.311,215.294,281.312z" fill="#201847"/></g><g id="change2_7"><path d="M199.692,276.68c-1.046,0-2.021-0.662-2.371-1.709c-0.436-1.308,0.269-2.722,1.575-3.161 c0.378-0.13,28.108-10.113,51.303-58.598c0.596-1.245,2.087-1.773,3.334-1.176c1.245,0.596,1.772,2.089,1.176,3.334 c-24.251,50.692-53.014,60.777-54.227,61.181C200.222,276.639,199.955,276.68,199.692,276.68z" fill="#201847"/></g><g id="change2_8"><path d="M225.317,262.208c-3.073,0-5.169-0.752-5.353-0.82c-1.294-0.482-1.953-1.921-1.471-3.215 c0.48-1.289,1.908-1.948,3.201-1.476c0.32,0.113,7.068,2.394,13.592-3.613c1.015-0.934,2.597-0.87,3.533,0.146 c0.935,1.016,0.87,2.597-0.146,3.533C233.887,261.168,228.928,262.208,225.317,262.208z" fill="#201847"/></g><g id="change2_9"><path d="M230.263,250.343c-0.596,0-1.196-0.208-1.676-0.627c-0.221-0.193-5.363-4.84-1.415-14.365 c0.528-1.275,1.991-1.881,3.267-1.352c1.275,0.529,1.881,1.992,1.352,3.267c-2.509,6.052,0.025,8.622,0.134,8.729 c1.039,0.909,1.122,2.467,0.212,3.506C231.648,250.061,230.958,250.343,230.263,250.343z" fill="#201847"/></g><g fill="#201847" id="change2_1"><path d="M197.492,276.861c-0.312,0-0.623-0.058-0.917-0.174c-0.274-0.108-27.269-11.154-16.916-42.139 c9.626-28.811,10.94-37.49,10.141-45.073c-0.128-1.219,0.322-2.004,0.722-2.449c0.536-0.596,1.282-0.924,2.102-0.924 c4.688,0,15.532,16.537,15.991,17.24c4.585,7.028,12.595,20.936,14.716,35.116c2.864,19.15-5.818,32.392-25.107,38.293 C197.985,276.825,197.738,276.861,197.492,276.861z M195.005,193.745c-0.095,7.604-2.44,17.957-10.604,42.388 c-7.999,23.94,9.233,33.667,13.237,35.561c13.146-4.268,20.252-12.28,21.13-23.823 C220.318,227.476,202.616,202.111,195.005,193.745z" fill="inherit"/><path d="M195.455,275.598c-0.446,0-0.897-0.12-1.306-0.37c-1.175-0.721-1.544-2.257-0.826-3.433 c0.194-0.323,15.513-26.618-0.946-77.728c-0.423-1.314,0.299-2.723,1.614-3.146c1.313-0.421,2.723,0.3,3.146,1.614 c17.252,53.572,1.145,80.741,0.451,81.871C197.116,275.174,196.295,275.598,195.455,275.598z" fill="inherit"/><path d="M199.216,262.181c-0.655,0-1.308-0.255-1.799-0.763c-3.037-3.145-7.057-8.579-8.962-16.611 c-0.318-1.343,0.512-2.691,1.855-3.01c1.344-0.32,2.691,0.512,3.01,1.855c1.731,7.295,5.563,12.085,7.694,14.292 c0.959,0.993,0.932,2.576-0.062,3.535C200.467,261.948,199.841,262.181,199.216,262.181z" fill="inherit"/><path d="M202.55,250.04c-0.973,0-1.898-0.571-2.302-1.523c-0.538-1.266,0.049-2.728,1.31-3.272 c0.304-0.135,6.779-3.114,7.389-11.968c0.095-1.377,1.284-2.418,2.666-2.322c1.377,0.095,2.417,1.289,2.322,2.666 c-0.829,12.018-10.018,16.054-10.409,16.22C203.208,249.976,202.876,250.04,202.55,250.04z" fill="inherit"/><path d="M201.668,235.439c-0.903,0-7.313-0.33-10.802-9.465c-0.493-1.29,0.154-2.734,1.444-3.227 c1.288-0.495,2.734,0.154,3.227,1.444c2.337,6.121,5.944,6.247,6.097,6.25c1.384-0.063,2.51,1.021,2.564,2.401 s-1.053,2.542-2.433,2.596C201.75,235.438,201.717,235.439,201.668,235.439z" fill="inherit"/></g></svg>