<?xml version="1.0" encoding="UTF-8"?><svg xmlns="http://www.w3.org/2000/svg" xmlns:xlink="http://www.w3.org/1999/xlink" height="64.0" preserveAspectRatio="xMidYMid meet" version="1.0" viewBox="8.0 0.0 48.0 64.0" width="48.0" zoomAndPan="magnify"><g id="change1_1"><path d="M 27 22 C 27.550781 22 28 21.550781 28 21 L 28 20 C 28 19.449219 27.550781 19 27 19 C 26.449219 19 26 19.449219 26 20 L 26 21 C 26 21.550781 26.449219 22 27 22" fill="inherit"/><path d="M 37 22 C 37.550781 22 38 21.550781 38 21 L 38 20 C 38 19.449219 37.550781 19 37 19 C 36.449219 19 36 19.449219 36 20 L 36 21 C 36 21.550781 36.449219 22 37 22" fill="inherit"/><path d="M 54 62 L 48 62 L 48 61 C 48 60.449219 48.449219 60 49 60 L 54 60 Z M 10 62 L 10 60 L 15 60 C 15.550781 60 16 60.449219 16 61 L 16 62 Z M 32 49.257812 L 30 46.398438 L 30 37.820312 C 30.652344 37.929688 31.316406 38 32 38 C 32.683594 38 33.347656 37.929688 34 37.820312 L 34 46.398438 Z M 28 43.542969 L 26.921875 42 L 28 42 Z M 22 26 L 22 25.707031 C 28.640625 23.445312 35.359375 23.445312 42 25.707031 L 42 26 C 42 31.515625 37.515625 36 32 36 C 26.484375 36 22 31.515625 22 26 Z M 18 18 C 18 16.898438 18.898438 16 20 16 L 28 16 C 28.007812 16 28.015625 15.996094 28.023438 15.996094 C 28.933594 17.207031 30.371094 18 32 18 C 33.628906 18 35.066406 17.207031 35.976562 15.996094 C 35.984375 15.996094 35.992188 16 36 16 L 44 16 C 45.101562 16 46 16.898438 46 18 C 46 19.101562 45.101562 20 44 20 L 44 19 C 44 18.449219 43.550781 18 43 18 C 42.449219 18 42 18.449219 42 19 L 42 23.601562 C 35.355469 21.476562 28.644531 21.476562 22 23.601562 L 22 19 C 22 18.449219 21.550781 18 21 18 C 20.449219 18 20 18.449219 20 19 L 20 20 C 18.898438 20 18 19.101562 18 18 Z M 27.101562 12 C 27.035156 12.324219 27 12.65625 27 13 C 27 13.34375 27.035156 13.675781 27.101562 14 L 22 14 L 22 12 Z M 32 10 C 33.65625 10 35 11.34375 35 13 C 35 14.65625 33.65625 16 32 16 C 30.34375 16 29 14.65625 29 13 C 29 11.34375 30.34375 10 32 10 Z M 42 12 L 42 14 L 36.898438 14 C 36.964844 13.675781 37 13.34375 37 13 C 37 12.65625 36.964844 12.324219 36.898438 12 Z M 37.078125 42 L 36 43.542969 L 36 42 Z M 43 40 L 36 40 L 36 37.300781 C 40.652344 35.648438 44 31.214844 44 26 L 44 22 C 46.207031 22 48 20.207031 48 18 C 48 15.792969 46.207031 14 44 14 L 44 12 C 44 9.664062 43.328125 7.402344 42.058594 5.453125 C 41.757812 4.992188 41.136719 4.859375 40.675781 5.160156 C 40.210938 5.464844 40.082031 6.082031 40.382812 6.546875 C 41.070312 7.601562 41.527344 8.777344 41.773438 10 L 36 10 C 35.992188 10 35.984375 10.003906 35.976562 10.003906 C 35.066406 8.792969 33.628906 8 32 8 C 30.371094 8 28.933594 8.792969 28.023438 10.003906 C 28.015625 10.003906 28.007812 10 28 10 L 22.203125 10 C 23.132812 5.441406 27.171875 2 32 2 C 34.074219 2 36.0625 2.628906 37.75 3.816406 C 38.203125 4.136719 38.828125 4.027344 39.144531 3.574219 C 39.460938 3.125 39.351562 2.5 38.902344 2.183594 C 36.875 0.753906 34.488281 0 32 0 C 25.382812 0 20 5.382812 20 12 L 20 14 C 17.792969 14 16 15.792969 16 18 C 16 20.207031 17.792969 22 20 22 L 20 26 C 20 31.214844 23.347656 35.648438 28 37.300781 L 28 40 L 21 40 C 17.273438 40 13.71875 41.601562 11.25 44.398438 C 10.886719 44.8125 10.921875 45.445312 11.339844 45.808594 C 11.753906 46.175781 12.382812 46.136719 12.75 45.722656 C 14.839844 43.355469 17.84375 42 21 42 L 24.480469 42 L 31.179688 51.574219 C 31.554688 52.109375 32.445312 52.109375 32.820312 51.574219 L 39.519531 42 L 43 42 C 49.066406 42 54 46.933594 54 53 L 54 58 L 49 58 C 47.34375 58 46 59.34375 46 61 L 46 62 L 18 62 L 18 61 C 18 59.34375 16.65625 58 15 58 L 10 58 L 10 53 C 10 51.398438 10.335938 49.855469 10.996094 48.417969 C 11.226562 47.914062 11.007812 47.320312 10.503906 47.089844 C 10.003906 46.863281 9.40625 47.082031 9.175781 47.582031 C 8.394531 49.285156 8 51.109375 8 53 L 8 63 C 8 63.550781 8.449219 64 9 64 L 55 64 C 55.550781 64 56 63.550781 56 63 L 56 53 C 56 45.832031 50.167969 40 43 40" fill="inherit"/></g></svg>