<?xml version="1.0" encoding="UTF-8"?><svg xmlns="http://www.w3.org/2000/svg" height="368.64pt" version="1.1" viewBox="0 0 321.74 368.64" width="321.74pt">
 <defs>
  <clipPath id="clip1">
   <path d="m0 160h321.74v208.64h-321.74z"/>
  </clipPath>
 </defs>
 <g id="surface1">
  <g id="change1_1"><path d="m91.906 270.18c0.141-5.47-2.871-10.26-7.336-12.55-0.461 1.81-1.797 3.36-3.691 4.01-2.992 1.03-6.258-0.56-7.289-3.55-0.082-0.24-0.164-0.48-0.242-0.73-4.555 2.07-7.789 6.69-7.93 12.14-0.191 7.52 5.578 13.77 12.894 13.96 7.313 0.19 13.399-5.76 13.594-13.28zm-13.097-6.04c3.058 0.08 5.476 2.7 5.394 5.84-0.078 3.15-2.625 5.64-5.687 5.56-3.063-0.08-5.477-2.69-5.399-5.84 0.082-3.15 2.629-5.64 5.692-5.56" fill="#414141" fill-rule="evenodd"/></g>
  <g id="change2_2"><path d="m202.44 294.91c0.08-0.01 27.78-3.82 38.88-19.23 8.81-12.24 5.76-18.36 4.94-19.61l-15.84-15.84-15.18-15.18c-1.25-0.82-7.37-3.87-19.6 4.94-15.42 11.1-19.23 38.8-19.24 38.89l-11.38-1.63c0.01-0.09 4.46-32.57 23.91-46.58 21.06-15.16 33.81-4.33 33.85-4.31l0.42 0.37 15.37 15.36 16.02 16.02 0.36 0.43c0.03 0.03 10.85 12.78-4.31 33.84-14.01 19.45-46.49 23.91-46.58 23.92l-1.62-11.39" fill="#004d3f" fill-rule="evenodd"/></g>
  <g id="change2_3"><path d="m161.7 281.71c-4.15-4.14-4.15-10.85 0-15 4.14-4.14 10.86-4.14 15 0 4.15 4.15 4.15 10.86 0 15-4.14 4.15-10.86 4.15-15 0" fill="#004d3f" fill-rule="evenodd"/></g>
  <g id="change2_4"><path d="m189.38 309.4c-4.14-4.14-4.14-10.86 0-15.01 4.15-4.14 10.86-4.14 15.01 0 4.14 4.15 4.14 10.87 0 15.01-4.15 4.14-10.86 4.14-15.01 0" fill="#004d3f" fill-rule="evenodd"/></g>
  <g id="change2_5"><path d="m122.37 0h77.05c8.06 0 15.39 3.293 20.7 8.6016 5.31 5.3044 8.6 12.632 8.6 20.695v21.883c0 2.316-0.27 4.578-0.79 6.75-0.25 1.023-0.55 2.027-0.9 3.015l0.15 0.219c0.75 1.094 1.43 2.184 2.06 3.266l0.76 2.859v5.238c3.32 4.094 5.41 8.778 6.44 13.879 2.51 12.414-1.46 27.104-9.04 41.384-7.31 13.77-18.02 27.34-29.39 38.06-12.08 11.4-25.13 19.72-35.99 21.92h-2.25c-10.85-2.2-23.9-10.52-35.98-21.92-11.38-10.73-22.1-24.3-29.392-38.04-7.582-14.29-11.558-28.978-9.043-41.404 1.032-5.101 3.118-9.785 6.434-13.879v-5.238l0.766-2.859c2.191-3.809 2.59-2.953 2.414-3.328-0.762-1.637-1.895-4.071-1.895-9.922v-21.883c0-8.063 3.293-15.391 8.606-20.695 5.3-5.309 12.63-8.602 20.69-8.602zm77.05 11.52h-77.05c-4.88 0-9.32 2-12.55 5.226-3.22 3.223-5.23 7.668-5.23 12.551v21.883c0 3.312 0.49 4.359 0.82 5.062 1.68 3.602 2.23 4.801-2.1 12.555v5.867l-1.58 3.938c-2.71 2.878-4.363 6.289-5.125 10.054-1.933 9.563 1.524 21.624 7.965 33.754 6.72 12.67 16.6 25.18 27.09 35.07 10.19 9.61 20.75 16.66 29.24 18.78 8.48-2.12 19.05-9.17 29.24-18.78 10.5-9.91 20.38-22.41 27.09-35.05 6.43-12.13 9.89-24.2 7.96-33.774-0.76-3.765-2.42-7.176-5.13-10.054l-1.58-3.938v-5.797c-0.26-0.426-0.53-0.832-0.8-1.222-0.55-0.813-1.13-1.583-1.72-2.313l-2.32-2.883 1.67-3.304c0.6-1.192 1.08-2.489 1.41-3.868 0.31-1.312 0.48-2.683 0.48-4.097v-21.883c0-4.883-2-9.328-5.23-12.551-3.22-3.226-7.67-5.226-12.55-5.226" fill="#004d3f" fill-rule="evenodd"/></g>
  <g id="change2_6"><path d="m100.68 54.098h120.61v11.519h-120.61v-11.519" fill="#004d3f" fill-rule="evenodd"/></g>
  <g clip-path="url(#clip1)" id="change2_1">
   <path d="m227.98 160.76c0.81 0.12 2.85 0.47 5.79 1.2 15.55 3.87 57.73 18.86 77.54 70.39 11.51 29.93 15.4 72.21 1.78 131.81h0.01c-0.62 2.71-3.05 4.53-5.71 4.48h-293.08c-2.896 0-5.2944-2.14-5.7006-4.93-42.304-186.06 85.02-202.93 85.567-203.01h-0.004c2.465-0.37 4.793 0.89 5.918 2.96 10.44 17.83 22.34 30.38 34.79 37.65 8.51 4.98 17.28 7.46 26.02 7.46 8.73 0 17.51-2.48 26.02-7.46 12.49-7.29 24.42-19.9 34.89-37.82l4.97 2.9-4.97-2.9c1.28-2.2 3.8-3.24 6.17-2.73zm3.04 12.36c-0.49-0.12-0.95-0.23-1.37-0.32-11.01 17.86-23.61 30.68-36.93 38.46-10.31 6.02-21.04 9.03-31.82 9.03s-21.52-3.01-31.83-9.03c-13.32-7.78-25.92-20.61-36.933-38.47-19.27 4.33-106.09 32.5-73.199 184.33h283.94c11.85-54.71 8.21-93.38-2.28-120.68-17.83-46.39-55.64-59.85-69.58-63.32" fill="#004d3f" fill-rule="evenodd"/>
  </g>
  <g id="change2_7"><path d="m230.57 232.64c0.07-0.08 24.91-26.7-5.34-62l8.73-7.47c36.89 43.06 5.2 77.07 5.11 77.17l-8.5-7.7" fill="#004d3f" fill-rule="evenodd"/></g>
  <g id="change2_8"><path d="m96.531 176.63c2.285-2.2 2.356-5.83 0.157-8.12-2.2-2.28-5.836-2.35-8.122-0.15-8.226 7.88-13.976 23.78-16.711 40.68-2.851 17.63-2.5 36.78 1.735 49.05 1.031 2.99 4.297 4.58 7.289 3.55 2.996-1.03 4.586-4.29 3.555-7.29-3.625-10.5-3.825-27.52-1.235-43.52 2.371-14.67 6.996-28.12 13.332-34.2" fill="#004d3f" fill-rule="evenodd"/></g>
  <g id="change2_9"><path d="m79.012 256.22c7.312 0.19 13.086 6.44 12.894 13.96-0.195 7.52-6.281 13.47-13.594 13.28-7.316-0.19-13.085-6.44-12.894-13.96 0.195-7.52 6.281-13.47 13.594-13.28" fill="#004d3f" fill-rule="evenodd"/></g>
  <g id="change3_1"><path d="m78.809 264.14c3.058 0.08 5.476 2.7 5.394 5.84-0.078 3.15-2.625 5.64-5.687 5.56-3.063-0.08-5.477-2.69-5.399-5.84 0.082-3.15 2.629-5.64 5.692-5.56" fill="#7fcbc4" fill-rule="evenodd"/></g>
  <g id="change3_2"><path d="m104.77 54.098h112.19c0.16-0.95 0.24-1.922 0.24-2.918v-21.883c0-4.883-2-9.328-5.23-12.551-3.22-3.226-7.67-5.226-12.55-5.226h-77.05c-4.88 0-9.32 2-12.55 5.226-3.22 3.223-5.23 7.668-5.23 12.551v21.883c0 1.269 0.07 2.203 0.18 2.918" fill="#7fcbc4" fill-rule="evenodd"/></g>
  <g id="change3_3"><path d="m216.19 65.617h-111.2c-0.45 0.922-1.01 1.973-1.68 3.18v5.867l-1.58 3.938c-2.71 2.878-4.363 6.289-5.125 10.054-1.933 9.563 1.524 21.624 7.965 33.754 6.72 12.67 16.6 25.18 27.09 35.07 10.19 9.61 20.75 16.66 29.24 18.78 8.48-2.12 19.05-9.17 29.24-18.78 10.5-9.91 20.38-22.41 27.09-35.05 6.43-12.13 9.89-24.2 7.96-33.774-0.76-3.765-2.42-7.176-5.13-10.054l-1.58-3.938v-5.797c-0.26-0.426-0.53-0.832-0.8-1.222-0.48-0.707-0.98-1.383-1.49-2.028" fill="#7fcbc4" fill-rule="evenodd"/></g>
  <g id="change3_4"><path d="m160.9 220.29c-10.78 0-21.52-3.01-31.83-9.03-12.03-7.03-23.47-18.17-33.687-33.42-5.746 6.53-9.961 19.22-12.184 32.99-2.59 16-2.39 33.02 1.235 43.52 0.378 1.1 0.406 2.24 0.136 3.28 4.465 2.29 7.477 7.08 7.336 12.55-0.195 7.52-6.281 13.47-13.594 13.28-7.316-0.19-13.085-6.44-12.894-13.96 0.141-5.45 3.375-10.07 7.93-12.14-4.004-12.29-4.289-31.03-1.493-48.32 2.071-12.81 5.875-25.03 11.172-33.63-28.648 9.89-93.172 47.45-64.089 181.71h283.94c11.85-54.71 8.21-93.38-2.28-120.68-13.7-35.64-39.19-51.84-56.59-59.01 15.27 27.46 4.48 49.52-1.58 58.52l12.16 12.16 0.36 0.43c0.03 0.03 10.85 12.78-4.31 33.84-11.59 16.1-35.83 21.92-43.9 23.46-0.52 1.3-1.3 2.51-2.35 3.56-4.15 4.14-10.86 4.14-15.01 0-4.14-4.14-4.14-10.86 0-15.01 4.15-4.14 10.86-4.14 15.01 0 0.05 0.06 0.11 0.11 0.16 0.17 6.68-1.24 27.51-6.02 36.77-18.88 8.81-12.24 5.76-18.36 4.94-19.61l-15.84-15.84-15.18-15.18c-1.25-0.82-7.37-3.87-19.6 4.94-12.87 9.26-17.65 30.08-18.89 36.77 4.1 4.15 4.08 10.83-0.05 14.95-4.14 4.15-10.86 4.15-15 0-4.15-4.14-4.15-10.85 0-15 1.12-1.12 2.43-1.94 3.83-2.46 1.63-8.37 7.51-32.14 23.4-43.58 21.06-15.16 33.81-4.33 33.85-4.31l0.42 0.37 10.95 10.94c5.3-8.81 12.77-28.58-5.67-53-10.73 16.88-22.91 29.09-35.76 36.59-10.31 6.02-21.04 9.03-31.82 9.03" fill="#7fcbc4" fill-rule="evenodd"/></g>
 </g>
</svg>