<?xml version="1.0" encoding="UTF-8"?><svg xmlns="http://www.w3.org/2000/svg" xmlns:xlink="http://www.w3.org/1999/xlink" height="1412.2" preserveAspectRatio="xMidYMid meet" version="1.0" viewBox="207.5 354.6 1706.2 1412.2" width="1706.2" zoomAndPan="magnify"><g><g id="change1_1"><path d="M 1334.460938 753.839844 C 1334.460938 783.332031 1310.539062 807.242188 1281.058594 807.242188 L 840.257812 807.242188 C 810.761719 807.242188 786.851562 783.332031 786.851562 753.839844 L 786.851562 524.050781 C 786.851562 494.558594 810.761719 470.648438 840.257812 470.648438 L 1281.058594 470.648438 C 1310.539062 470.648438 1334.460938 494.558594 1334.460938 524.050781 Z M 1400.125 354.574219 L 721.191406 354.574219 C 675.761719 354.574219 638.9375 391.398438 638.9375 436.832031 L 638.9375 790.761719 C 638.9375 836.191406 675.761719 873.015625 721.191406 873.015625 L 1400.125 873.015625 C 1445.546875 873.015625 1482.371094 836.191406 1482.371094 790.761719 L 1482.371094 436.832031 C 1482.371094 391.398438 1445.546875 354.574219 1400.125 354.574219" fill="#218286"/></g><g id="change1_2"><path d="M 242.363281 1081.9375 L 242.363281 1712.578125 C 242.363281 1758.007812 279.191406 1766.75 324.617188 1766.75 L 1796.707031 1766.75 C 1842.136719 1766.75 1878.964844 1758.007812 1878.964844 1712.578125 L 1878.964844 1081.9375 L 242.363281 1081.9375" fill="#218286"/></g><g id="change2_1"><path d="M 1913.78125 1118.097656 C 1913.78125 1149.417969 1875.378906 1155.449219 1828.027344 1155.449219 L 293.296875 1155.449219 C 245.9375 1155.449219 207.542969 1149.417969 207.542969 1118.097656 L 207.542969 795.621094 C 207.542969 764.304688 308.121094 637 1058.710938 637 C 1832.511719 637 1913.78125 764.304688 1913.78125 795.621094 L 1913.78125 1118.097656" fill="#59b5a8"/></g><g id="change3_1"><path d="M 645.710938 1234.761719 C 645.710938 1276.429688 611.933594 1310.199219 570.265625 1310.199219 C 528.597656 1310.199219 494.820312 1276.429688 494.820312 1234.761719 L 494.820312 1080 C 494.820312 1038.328125 528.597656 1004.550781 570.265625 1004.550781 C 611.933594 1004.550781 645.710938 1038.328125 645.710938 1080 L 645.710938 1234.761719" fill="#33617e"/></g><g id="change3_2"><path d="M 1626.5 1234.761719 C 1626.5 1276.429688 1592.71875 1310.199219 1551.058594 1310.199219 C 1509.390625 1310.199219 1475.609375 1276.429688 1475.609375 1234.761719 L 1475.609375 1080 C 1475.609375 1038.328125 1509.390625 1004.550781 1551.058594 1004.550781 C 1592.71875 1004.550781 1626.5 1038.328125 1626.5 1080 L 1626.5 1234.761719" fill="#33617e"/></g><g id="change4_1"><path d="M 1213.25 1383.371094 L 1130.660156 1383.371094 L 1130.660156 1268.078125 C 1130.660156 1241.140625 1108.808594 1219.289062 1081.871094 1219.289062 L 1039.449219 1219.289062 C 1012.511719 1219.289062 990.664062 1241.140625 990.664062 1268.078125 L 990.664062 1383.371094 L 908.070312 1383.371094 C 885.882812 1383.371094 867.894531 1405.21875 867.894531 1432.160156 L 867.894531 1474.570312 C 867.894531 1501.519531 885.882812 1523.359375 908.070312 1523.359375 L 990.664062 1523.359375 L 990.664062 1638.648438 C 990.664062 1665.601562 1012.511719 1687.441406 1039.449219 1687.441406 L 1081.871094 1687.441406 C 1108.808594 1687.441406 1130.660156 1665.601562 1130.660156 1638.648438 L 1130.660156 1523.359375 L 1213.25 1523.359375 C 1235.441406 1523.359375 1253.429688 1501.519531 1253.429688 1474.570312 L 1253.429688 1432.160156 C 1253.429688 1405.21875 1235.441406 1383.371094 1213.25 1383.371094" fill="#fff"/></g><g id="change4_2"><path d="M 1367.09375 692.976562 C 1367.09375 692.976562 1375.265625 692.863281 1389.574219 692.644531 C 1403.871094 692.507812 1424.332031 692.566406 1448.867188 693.367188 C 1473.410156 694.191406 1502.058594 695.765625 1532.632812 699.042969 C 1563.195312 702.242188 1595.730469 706.839844 1628.003906 713.074219 C 1644.167969 716.136719 1660.214844 719.65625 1675.992188 723.378906 C 1691.777344 727.058594 1707.148438 731.429688 1721.925781 735.96875 C 1736.636719 740.726562 1750.691406 745.851562 1763.769531 751.339844 C 1776.886719 756.753906 1789.082031 762.359375 1800.125 767.964844 C 1811.199219 773.511719 1821.066406 779.105469 1829.6875 784.300781 C 1838.285156 789.515625 1845.589844 794.386719 1851.425781 798.652344 C 1857.269531 802.882812 1861.777344 806.3125 1864.722656 808.820312 C 1865.457031 809.453125 1866.109375 810.003906 1866.671875 810.472656 C 1866.945312 810.714844 1867.199219 810.929688 1867.429688 811.125 L 1867.714844 811.367188 C 1867.773438 811.402344 1867.613281 811.308594 1867.507812 811.296875 C 1867.441406 811.273438 1867.40625 811.273438 1867.324219 811.273438 C 1866.84375 810.746094 1866.007812 812.984375 1866.578125 812.742188 L 1866.601562 812.753906 L 1866.488281 812.628906 C 1865.835938 811.90625 1865.492188 811.527344 1865.492188 811.527344 C 1865.203125 811.230469 1865.226562 810.757812 1865.523438 810.472656 C 1865.789062 810.21875 1866.203125 810.207031 1866.476562 810.414062 C 1866.476562 810.414062 1866.902344 810.726562 1867.714844 811.320312 L 1867.886719 811.457031 L 1868.035156 811.617188 C 1868.632812 811.390625 1867.796875 813.648438 1867.3125 813.121094 C 1867.222656 813.121094 1867.164062 813.109375 1867.085938 813.085938 C 1866.945312 813.0625 1866.75 812.960938 1866.785156 812.972656 L 1866.328125 812.730469 C 1866.0625 812.570312 1865.765625 812.410156 1865.445312 812.226562 C 1864.816406 811.871094 1864.070312 811.457031 1863.234375 810.976562 C 1859.886719 809.144531 1855.035156 806.355469 1848.671875 803.148438 C 1842.3125 799.949219 1834.574219 796.152344 1825.585938 792.027344 C 1816.621094 787.878906 1806.382812 783.476562 1795.148438 778.867188 C 1783.902344 774.292969 1771.636719 769.570312 1758.554688 764.847656 C 1745.441406 760.226562 1731.578125 755.445312 1717.148438 750.8125 C 1688.335938 741.296875 1657.222656 732.011719 1625.539062 724.789062 C 1593.875 717.546875 1561.808594 711.871094 1531.578125 707.652344 C 1516.46875 705.519531 1501.808594 703.855469 1487.878906 702.308594 C 1473.960938 700.796875 1460.765625 699.570312 1448.578125 698.605469 C 1424.195312 696.679688 1403.800781 695.695312 1389.527344 695.167969 C 1375.253906 694.730469 1367.082031 694.480469 1367.082031 694.480469 C 1366.667969 694.46875 1366.335938 694.136719 1366.347656 693.710938 C 1366.359375 693.308594 1366.691406 693 1367.09375 692.976562" fill="#fff"/></g><g id="change4_3"><path d="M 1835.546875 1186.398438 C 1835.546875 1186.398438 1836.304688 1220.308594 1837.421875 1271.167969 C 1837.988281 1296.597656 1838.679688 1326.269531 1839.140625 1358.058594 C 1839.671875 1389.851562 1840.226562 1423.757812 1840.792969 1457.671875 C 1841.132812 1474.628906 1841.480469 1491.578125 1841.820312 1508.269531 C 1842.285156 1524.960938 1842.398438 1541.378906 1842.601562 1557.28125 C 1842.578125 1573.179688 1842.453125 1588.539062 1842.035156 1603.109375 C 1841.730469 1617.679688 1841.3125 1631.460938 1840.792969 1644.167969 C 1838.882812 1695.039062 1835.546875 1728.949219 1835.546875 1728.949219 C 1835.511719 1729.359375 1835.152344 1729.667969 1834.734375 1729.621094 C 1834.371094 1729.589844 1834.089844 1729.300781 1834.066406 1728.949219 C 1834.066406 1728.949219 1830.730469 1695.039062 1828.820312 1644.167969 C 1828.300781 1631.460938 1827.882812 1617.679688 1827.566406 1603.109375 C 1827.148438 1588.539062 1827.023438 1573.179688 1827.011719 1557.28125 C 1827.214844 1541.378906 1827.328125 1524.960938 1827.792969 1508.269531 C 1828.132812 1491.578125 1828.46875 1474.628906 1828.820312 1457.671875 C 1829.386719 1423.757812 1829.941406 1389.851562 1830.472656 1358.058594 C 1830.933594 1326.269531 1831.625 1296.597656 1832.191406 1271.167969 C 1833.308594 1220.308594 1834.066406 1186.398438 1834.066406 1186.398438 C 1834.066406 1185.980469 1834.417969 1185.660156 1834.824219 1185.660156 C 1835.21875 1185.667969 1835.535156 1186 1835.546875 1186.398438" fill="#fff"/></g><g id="change4_4"><path d="M 1446.417969 426.816406 C 1446.417969 426.816406 1447.300781 438.511719 1448.332031 456.054688 C 1449.539062 473.59375 1450.484375 496.972656 1451.648438 520.363281 C 1451.992188 526.210938 1452.335938 532.054688 1452.667969 537.808594 C 1453.097656 543.5625 1453.386719 549.234375 1453.460938 554.71875 C 1453.4375 560.191406 1453.3125 565.484375 1452.898438 570.519531 C 1452.597656 575.535156 1452.160156 580.289062 1451.648438 584.671875 C 1449.765625 602.210938 1446.417969 613.90625 1446.417969 613.90625 C 1446.292969 614.324219 1445.863281 614.5625 1445.449219 614.449219 C 1445.179688 614.363281 1444.992188 614.15625 1444.90625 613.90625 C 1444.90625 613.90625 1441.558594 602.210938 1439.675781 584.671875 C 1439.164062 580.289062 1438.726562 575.535156 1438.425781 570.519531 C 1438.007812 565.484375 1437.882812 560.191406 1437.875 554.71875 C 1437.925781 549.234375 1438.226562 543.5625 1438.65625 537.808594 C 1438.988281 532.054688 1439.332031 526.210938 1439.675781 520.363281 C 1440.839844 496.972656 1441.796875 473.59375 1443.003906 456.054688 C 1444.023438 438.511719 1444.90625 426.816406 1444.90625 426.816406 C 1444.949219 426.410156 1445.3125 426.097656 1445.71875 426.128906 C 1446.09375 426.160156 1446.386719 426.453125 1446.417969 426.816406" fill="#fff"/></g></g></svg>