<?xml version="1.0" encoding="UTF-8"?><!-- Generator: Adobe Illustrator 22.0.1, SVG Export Plug-In . SVG Version: 6.00 Build 0)  --><svg xmlns="http://www.w3.org/2000/svg" enable-background="new 0 0 112.1797 160.5356" id="_x31_425" version="1.1" viewBox="0 0 112.1797 160.5356" x="0px" xml:space="preserve" y="0px">
<g>
	<g id="change1_1">
		<path d="m90.062 94.995c1.314-5.9072 2.0361-42.348 2.0361-48.972 0-31.283-15.955-46.023-35.636-46.023s-35.639 14.74-35.639 46.023c0 6.6236 0.7232 43.064 2.0366 48.972h67.202z" fill="#202630"/>
	</g>
	<g id="change2_1"><path d="m84.167 40.261c0-0.126-0.0054-0.2475-0.0054-0.374l-13.793-14.821-17.495 12.886v-6.5391l-23.899 13.934c0.9985 12.216 5.4692 24.697 11.872 32.88v29.42h30.992v-29.123c7.433-9.3 12.328-24.383 12.328-38.266z" fill="#E4BC96"/></g>
	<g id="change3_1">
		<path d="m75.872 93.822c-0.5976 2.143-9.1328 3.8427-19.577 3.8427-10.446 0-18.981-1.6997-19.577-3.8427h-13.247v66.713h68.535v-66.718h-16.134z" fill="#269EB2"/>
	</g>
	<g>
		<g id="change4_1">
			<path d="m19.96 89.802c-13.15 3.169-19.96 10.658-19.96 23.798v46.932h47.595v-28.709l-5.5288-44.96-22.106 2.942z" fill="#fff"/>
		</g>
	</g>
	<g id="change5_1">
		<polygon fill="#B6E0EF" points="39.132 104.57 35.825 109.91 47.595 131.34 42.082 86.867 28.995 88.604 27.074 101.49"/>
	</g>
	<g>
		<g>
			<g id="change4_2">
				<path d="m92.218 89.802c13.148 3.1685 19.962 10.656 19.962 23.802v46.932h-47.595v-28.709l5.5254-44.96 22.108 2.942z" fill="#fff"/>
			</g>
		</g>
	</g>
	<g id="change5_3">
		<polygon fill="#B6E0EF" points="73.043 104.57 76.351 109.91 64.585 131.34 70.094 86.867 83.18 88.604 85.105 101.49"/>
	</g>
	<g>
		<g id="change3_2">
			<path d="m41.363 145.89c0 1.0025-0.8121 1.8155-1.813 1.8155h-16.822c-1.0029 0-1.8164-0.813-1.8164-1.8155v-8.8584c0-1.0024 0.8135-1.8159 1.8164-1.8159h16.823c1.0009 0 1.813 0.8135 1.813 1.8159v8.86z" fill="#269EB2"/>
		</g>
		<g id="change6_1">
			<path d="m33.468 136.75c0 0.3008-0.2421 0.5449-0.5439 0.5449h-3.5732c-0.3003 0-0.544-0.2441-0.544-0.5449v-4.1431c0-0.3003 0.2437-0.5439 0.544-0.5439h3.5732c0.3018 0 0.5439 0.2436 0.5439 0.5439v4.14z" fill="inherit"/>
		</g>
		<g id="change5_4">
			<path d="m38.633 140.22c0 0.3012-0.2456 0.5454-0.5444 0.5454h-14.301c-0.3003 0-0.5459-0.2442-0.5459-0.5454v-0.1919c0-0.3008 0.2456-0.545 0.5459-0.545h14.301c0.2988 0 0.5444 0.2442 0.5444 0.545v0.2z" fill="#B6E0EF"/>
		</g>
		<g id="change5_2">
			<path d="m38.633 144.17c0 0.3017-0.2456 0.5459-0.5444 0.5459h-14.301c-0.3003 0-0.5459-0.2442-0.5459-0.5459v-1.6856c0-0.3003 0.2456-0.5439 0.5459-0.5439h14.301c0.2988 0 0.5444 0.2436 0.5444 0.5439v1.69z" fill="#B6E0EF"/>
		</g>
	</g>
</g>
</svg>