<?xml version="1.0" encoding="UTF-8"?><svg xmlns="http://www.w3.org/2000/svg" height="425.2pt" version="1.1" viewBox="0 0 425.2 425.2" width="425.2pt">
 <g id="surface1">
  <g id="change1_1"><path d="m248.27 76.555h4.27v-37.711h-4.27z" fill="#ae9794"/></g>
  <g id="change1_2"><path d="m236.94 93.887h26.92v-26.789h-26.92z" fill="#ae9794"/></g>
  <g id="change2_1"><path d="m138.8 179.52h147.61v-85.633h-147.61z" fill="#40687b"/></g>
  <g id="change3_1"><path d="m150.64 128.3h24.16v-24.16h-24.16z" fill="#7dcace"/></g>
  <g id="change3_2"><path d="m183.89 128.3h24.16v-24.16h-24.16z" fill="#7dcace"/></g>
  <g id="change3_3"><path d="m217.16 128.3h24.15v-24.16h-24.15z" fill="#7dcace"/></g>
  <g id="change3_4"><path d="m250.4 128.3h24.18v-24.16h-24.18z" fill="#7dcace"/></g>
  <g id="change3_5"><path d="m150.64 169.22h24.16v-24.16h-24.16z" fill="#7dcace"/></g>
  <g id="change3_6"><path d="m183.89 169.22h24.16v-24.16h-24.16z" fill="#7dcace"/></g>
  <g id="change3_7"><path d="m217.16 169.22h24.15v-24.16h-24.15z" fill="#7dcace"/></g>
  <g id="change3_8"><path d="m250.4 169.22h24.18v-24.16h-24.18z" fill="#7dcace"/></g>
  <g id="change2_2"><path d="m120.11 386.36h184.98v-206.84h-184.98z" fill="#40687b"/></g>
  <g id="change3_9"><path d="m136.63 229.09h31.99v-31.98h-31.99z" fill="#7dcace"/></g>
  <g id="change3_10"><path d="m177.16 229.09h31.98v-31.98h-31.98z" fill="#7dcace"/></g>
  <g id="change3_11"><path d="m217.67 229.09h31.98v-31.98h-31.98z" fill="#7dcace"/></g>
  <g id="change3_12"><path d="m258.18 229.09h31.99v-31.98h-31.99z" fill="#7dcace"/></g>
  <g id="change3_13"><path d="m136.63 276.53h31.99v-31.98h-31.99z" fill="#7dcace"/></g>
  <g id="change3_14"><path d="m177.16 276.53h31.98v-31.98h-31.98z" fill="#7dcace"/></g>
  <g id="change3_15"><path d="m217.67 276.53h31.98v-31.98h-31.98z" fill="#7dcace"/></g>
  <g id="change3_16"><path d="m258.18 276.53h31.99v-31.98h-31.99z" fill="#7dcace"/></g>
  <g id="change3_17"><path d="m136.63 323.98h31.99v-31.99h-31.99z" fill="#7dcace"/></g>
  <g id="change3_18"><path d="m177.16 323.98h31.98v-31.99h-31.98z" fill="#7dcace"/></g>
  <g id="change1_3"><path d="m191.55 386.36h42.12v-47.45h-42.12z" fill="#ae9794"/></g>
  <g id="change3_19"><path d="m217.67 323.98h31.98v-31.99h-31.98z" fill="#7dcace"/></g>
  <g id="change3_20"><path d="m258.18 323.98h31.99v-31.99h-31.99z" fill="#7dcace"/></g>
  <g id="change1_4"><path d="m189.62 93.887h91.35v-11.973h-91.35z" fill="#ae9794"/></g>
  <g id="change4_1"><path d="m268.07 207.49c0 30.64-24.83 55.47-55.47 55.47s-55.47-24.83-55.47-55.47 24.83-55.48 55.47-55.48 55.47 24.84 55.47 55.48" fill="#51c5c9"/></g>
  <g id="change5_1"><path d="m262.02 207.49c0 27.29-22.12 49.43-49.42 49.43s-49.43-22.14-49.43-49.43c0-27.3 22.13-49.43 49.43-49.43s49.42 22.13 49.42 49.43" fill="#fff"/></g>
  <g id="change4_2"><path d="m202.19 239.74h20.82v-64.5h-20.82z" fill="#51c5c9"/></g>
  <g id="change4_3"><path d="m180.36 217.89h64.48v-20.8h-64.48z" fill="#51c5c9"/></g>
 </g>
</svg>