<?xml version="1.0" encoding="UTF-8"?><!-- Generator: Adobe Illustrator 22.0.1, SVG Export Plug-In . SVG Version: 6.00 Build 0)  --><svg xmlns="http://www.w3.org/2000/svg" enable-background="new 0 0 99.077 114.1889" id="_x31_11" version="1.1" viewBox="0 0 99.077 114.1889" x="0px" xml:space="preserve" y="0px">
<g>
	<g id="change1_1"><path d="m94.542 55.965c9.7325-21.382 3.2832-45.244-14.401-53.287-9.7676-4.4453-20.913-3.1255-30.584 2.541-9.676-5.682-20.844-7.0121-30.623-2.5599-17.681 8.0409-24.13 31.904-14.402 53.286 3.414 7.4961 8.3554 13.683 14.101 18.226-0.0479 1.188-0.0772 2.3897-0.0772 3.6123 0 20.101 7.3272 36.406 16.361 36.406 8.3711 0 15.268-13.996 16.239-32.041 0.0566 0.0107 0.1074 0.0234 0.1689 0.0322 0.9698 18.03 7.8692 32.009 16.236 32.009 9.0341 0 16.359-16.305 16.359-36.406 0-2.1831-0.0927-4.3135-0.2558-6.3887 4.369-4.171 8.128-9.376 10.878-15.43z" fill="#fff"/></g>
	<g>
		<g id="change2_1">
			<path d="m44.189 16.835c0 3.4638-5.0078 6.2734-11.178 6.2734-6.1778 0-11.186-2.8096-11.186-6.2734 0-3.4658 5.0078-6.2696 11.186-6.2696 6.17 0 11.178 2.804 11.178 6.27z" fill="#06262D"/>
		</g>
	</g>
</g>
</svg>